<svg width="246" height="93" viewBox="0 0 246 93" fill="none" xmlns="http://www.w3.org/2000/svg">
<g clip-path="url(#clip0_96_194)">
<path d="M8.94033 77.4354L30.8642 57.9409H0V36.6657H30.9932C30.0475 35.5802 29.2739 34.6324 28.4457 33.7565C25.7894 30.988 23.0959 28.2539 20.4424 25.4854C17.3974 22.311 14.3685 19.1222 11.3559 15.919C10.5565 15.0574 9.82004 14.1672 9.02916 13.2568C13.9349 8.83401 18.833 4.41509 23.7234 0C23.881 0.140724 24.01 0.235497 24.1074 0.341757C29.0876 5.25465 34.0688 10.1694 39.0509 15.0862C42.5468 18.5325 46.0485 21.9634 49.5558 25.3791C50.9141 26.7002 52.278 28.0155 53.6907 29.2763C54.3956 29.9052 54.3097 30.3245 53.6563 30.9219C51.3639 33.0241 49.424 35.3935 48.0686 38.2281C45.5613 43.4607 45.6272 48.7048 47.8451 54.0035C49.1595 57.2096 51.1542 60.0907 53.6907 62.4469C54.4902 63.185 54.2237 63.633 53.5675 64.1701C53.0746 64.5721 52.5674 64.9656 52.1118 65.4136C48.3609 69.0782 44.6272 72.7628 40.8762 76.4303C38.8131 78.4406 36.727 80.451 34.6553 82.4441C32.3887 84.6325 30.1335 86.8323 27.8612 89.015C26.715 90.1178 25.5258 91.1747 24.3911 92.2861C23.944 92.7255 23.6145 92.783 23.1646 92.3062C20.3851 89.3539 17.5989 86.4073 14.806 83.4665C14.5968 83.2453 14.3762 83.0357 14.1641 82.8174L8.94033 77.4354Z" fill="#3EDB84"/>
<path d="M152.874 60.1176H146.711C146.711 58.8913 146.731 57.7195 146.711 56.5478C146.645 53.2077 146.579 49.8677 146.479 46.5276C146.43 44.8217 145.046 43.1962 143.547 43.0153C141.183 42.7281 139.535 43.5523 138.939 45.4133C138.683 46.1534 138.539 46.9279 138.513 47.7109C138.472 51.8206 138.492 55.9332 138.492 60.1118H132.423V37.8372H138.235V39.8475C139.148 38.9775 140.229 38.3036 141.412 37.8671C142.594 37.4305 143.853 37.2406 145.112 37.3087C147.659 37.4035 149.843 38.2881 151.381 40.5339C153.445 38.0095 156.161 37.1537 159.239 37.3116C163.629 37.5385 166.755 40.4219 166.975 44.8274C167.213 49.8705 167.03 54.9337 167.03 60.086H160.866V58.9056C160.866 54.9768 160.866 51.0519 160.866 47.1307C160.866 44.4914 159.348 43.1502 156.657 42.9894C154.628 42.8659 152.814 45.0256 152.851 47.1336C152.929 51.4185 152.874 55.7235 152.874 60.1176Z" fill="white"/>
<path d="M87.389 60.1435H81.2798V30.7236C81.5663 30.7035 81.893 30.6604 82.2168 30.6604C85.7929 30.6604 89.3805 30.5743 92.9423 30.6891C95.0886 30.7581 97.2148 31.028 99.1633 32.2141C101.51 33.6501 102.94 35.6777 103.275 38.317C103.576 40.7093 103.43 43.1274 101.92 45.244C100.109 47.7828 97.5902 49.0005 94.5786 49.1642C92.2317 49.2934 89.8705 49.19 87.389 49.19V60.1435ZM87.4349 36.0481V43.6989H92.759C95.8823 43.6989 97.0572 42.4755 96.9397 39.3709C96.8881 38.0527 95.5929 36.499 94.2863 36.4014C92.034 36.2233 89.7731 36.1601 87.4349 36.0481Z" fill="white"/>
<path d="M192.341 55.9303C191.134 57.8344 189.449 59.2531 187.343 59.885C183.045 61.1773 178.784 61.2405 174.913 58.3829C172.686 56.7601 171.171 54.3381 170.683 51.6224C169.904 47.7224 170.809 44.21 173.339 41.2146C175.013 39.2562 177.321 37.9507 179.858 37.5271C182.603 37.0054 185.443 37.5003 187.85 38.92C189.202 39.6591 190.369 40.6947 191.265 41.9494C192.161 43.2041 192.763 44.6454 193.025 46.1658C193.312 47.7023 193.272 49.3077 193.384 50.9964H176.575C176.742 51.887 177.129 52.7215 177.701 53.4237C178.272 54.126 179.01 54.6738 179.847 55.0171C182.01 55.9504 184.208 55.8442 186.231 54.457C186.446 54.3106 186.724 54.1698 186.822 53.943C187.395 52.6822 188.1 53.0182 188.954 53.6558C189.997 54.4226 191.106 55.1118 192.341 55.9303ZM187.38 46.8838C187.163 44.3335 185.011 41.8953 181.601 42.0791C179.219 42.2083 176.603 44.3766 176.569 46.8838H187.38Z" fill="white"/>
<path d="M222.58 37.7513C224.672 37.7513 226.727 37.7197 228.776 37.7829C229.131 37.7829 229.561 38.1476 229.804 38.4635C231.314 40.4136 232.781 42.3981 234.352 44.4946C235.836 42.5101 237.3 40.5974 238.713 38.6502C239.146 38.0529 239.593 37.714 240.378 37.7369C242.195 37.7915 244.014 37.7542 246 37.7542C243.851 40.6606 241.799 43.4434 239.739 46.2234C239.226 46.9156 238.693 47.5905 238.163 48.2683C237.744 48.7996 237.862 49.2533 238.252 49.7645C240.659 52.916 243.052 56.0751 245.433 59.2418C245.624 59.5382 245.799 59.845 245.957 60.1609C243.762 60.1609 241.659 60.181 239.558 60.135C239.233 60.0629 238.948 59.8686 238.762 59.5922C237.18 57.5101 235.627 55.405 233.948 53.1534C233.174 54.0982 232.432 54.9627 231.736 55.8645C230.845 57.0132 229.977 58.185 229.131 59.3797C228.954 59.6568 228.704 59.879 228.409 60.0216C228.113 60.1641 227.784 60.2213 227.457 60.1867C225.686 60.1207 223.91 60.1666 221.898 60.1666C223.297 58.2884 224.549 56.5939 225.821 54.9081C227.285 52.9667 228.787 51.0511 230.208 49.0781C230.372 48.8541 230.248 48.2338 230.042 47.9581C227.578 44.6611 225.073 41.3929 222.592 38.1132C222.549 38.0758 222.58 37.9811 222.58 37.7513Z" fill="white"/>
<path d="M210.591 54.6844V60.1411C207.88 60.1267 205.147 60.5374 202.628 59.2335C200.109 57.9297 198.903 55.704 198.797 52.9613C198.679 49.7706 198.771 46.5741 198.771 43.2513H194.943V37.7516C195.645 37.7516 196.35 37.7516 197.057 37.7516C198.315 37.7516 198.974 37.0968 198.992 35.8131C199.009 34.6011 198.992 33.3863 198.992 32.1025H205.127V37.7114H210.571V43.1824H204.929C204.929 45.2703 204.906 47.2375 204.929 49.2134C204.936 50.2698 205.007 51.3248 205.141 52.3725C205.37 54.0382 206.542 54.6557 208.058 54.7045C208.872 54.7074 209.66 54.6844 210.591 54.6844Z" fill="white"/>
<path d="M112.691 60.1442H106.622V37.838H112.428V39.7966C114.402 38.3607 116.353 37.2665 118.798 37.3182V42.9816C117.608 43.2975 116.393 43.4957 115.282 43.9466C113.494 44.6703 112.703 46.1579 112.703 48.0563C112.683 52.0454 112.691 56.0402 112.691 60.1442Z" fill="white"/>
<path d="M121.64 60.1177V37.8374H127.698V60.1263L121.64 60.1177Z" fill="white"/>
<path d="M219.918 60.1206H213.9V37.8374H219.918V60.1206Z" fill="white"/>
<path d="M128.672 30.6577C128.672 33.139 127.191 34.4917 124.615 34.5836C122.609 34.6554 120.483 32.7685 120.652 30.494C120.809 28.3372 122.443 26.5451 124.758 26.6111C127.125 26.6628 129.01 28.6818 128.672 30.6577Z" fill="white"/>
<path d="M220.907 30.6347C220.907 33.1247 219.428 34.4745 216.858 34.5692C214.832 34.6439 212.717 32.7456 212.883 30.4882C213.041 28.3257 214.651 26.5451 216.981 26.5968C219.311 26.6485 221.248 28.6789 220.907 30.6347Z" fill="white"/>
</g>
<defs>
<clipPath id="clip0_96_194">
<rect width="246" height="92.6394" fill="white"/>
</clipPath>
</defs>
</svg>
